# xmcd
#
# Track frame offsets: 
#        150
#        7064
#        27549
#        47926
#        65564
#        81279
#        100214
#        120779
#        138122
#        156956
#        177790
#        194840
#        211677
#        233835
#        252717
#        272761
#
# Disc length: 3899 seconds
#
# Revision: 0
# Processed by: cddbd v1.5.2PL0 Copyright (c) Steve Scherf et al.
# Submitted via: ExactAudioCopy v0.99pb4
#
DISCID=e40f3910
DTITLE=Lloyd - Street Love
DYEAR=2007
DGENRE=R&B
TTITLE0=Lloyd (Intro)
TTITLE1=You (Feat. Lil Wayne)
TTITLE2=Certified
TTITLE3=I Don't Mind
TTITLE4=Gei It Shawty
TTITLE5=Incredible
TTITLE6=Valentine
TTITLE7=Hazel
TTITLE8=Player's Prayer
TTITLE9=Killing Me
TTITLE10=Take You Home
TTITLE11=What You Wanna Do
TTITLE12=Streetlove
TTITLE13=One For Me
TTITLE14=I Want You (Remix) (Feat. Andre 3000 and Nas)
TTITLE15=Hit The Floor (Feat. Matty P) (Bonus Track)
EXTD=
EXTT0=
EXTT1=
EXTT2=
EXTT3=
EXTT4=
EXTT5=
EXTT6=
EXTT7=
EXTT8=
EXTT9=
EXTT10=
EXTT11=
EXTT12=
EXTT13=
EXTT14=
EXTT15=
PLAYORDER=
